# xmcd
#
# Track frame offsets:
#	150
#	14399
#	31237
#	48398
#	66797
#	83406
#	102918
#	119952
#	136334
#	150826
#	174573
#
# Disc length: 2542 seconds
#
# Revision: 1
# Processed by: cddbd v1.5.2PL0 Copyright (c) Steve Scherf et al.
# Submitted via: audiograbber 1.83.01
#
DISCID=8509ec0b
DTITLE=Shania Twain - Wild and Wicked
DYEAR=1999
DGENRE=Country
TTITLE0=Bite my lip
TTITLE1=Wild and Wicked
TTITLE2=Send it with love
TTITLE3=Once over
TTITLE4=Hate to love
TTITLE5=Luv eyes
TTITLE6=I lost my heart when I found you
TTITLE7=The rhythm made me do it 
TTITLE8=Two hearts one love
TTITLE9=Half breed
TTITLE10=For the love of him
EXTD=
EXTT0=
EXTT1=
EXTT2=
EXTT3=
EXTT4=
EXTT5=
EXTT6=
EXTT7=
EXTT8=
EXTT9=
EXTT10=
PLAYORDER=
